<svg xmlns="http://www.w3.org/2000/svg" width="22.943" height="22.943" viewBox="0 0 22.943 22.943">
  <path id="remove_icon" data-name="remove icon" d="M15.061-9.658a1.075,1.075,0,0,0-1.521,0L11.471-7.548,9.325-9.658a1.075,1.075,0,0,0-1.521,0,1.075,1.075,0,0,0,0,1.521L9.911-6.03,7.842-3.923a1.075,1.075,0,0,0,0,1.521,1.075,1.075,0,0,0,1.521,0L11.471-4.51,13.579-2.4a1.075,1.075,0,0,0,1.521,0,1.075,1.075,0,0,0,0-1.521L12.992-6.031,15.1-8.138A1.045,1.045,0,0,0,15.061-9.658ZM11.471-17.5A11.47,11.47,0,0,0,0-6.029,11.47,11.47,0,0,0,11.471,5.443,11.47,11.47,0,0,0,22.943-6.029,11.47,11.47,0,0,0,11.471-17.5Zm0,20.792a9.331,9.331,0,0,1-9.32-9.32,9.331,9.331,0,0,1,9.32-9.32,9.331,9.331,0,0,1,9.32,9.32A9.331,9.331,0,0,1,11.471,3.292Z" transform="translate(0 17.5)" fill="#7621d8"/>
</svg>
